<svg width="40" height="40" viewBox="0 0 40 40" fill="none" xmlns="http://www.w3.org/2000/svg">
<path d="M0 20C0 8.955 8.955 0 20 0C31.045 0 40 8.955 40 20C40 31.045 31.045 40 20 40C8.955 40 0 31.045 0 20Z" fill="#523BFF"/>
<path d="M28.6412 12.2337C28.3171 11.9634 27.8081 11.9247 27.2817 12.1326H27.2809C26.7273 12.351 11.6113 18.7277 10.996 18.9882C10.8841 19.0265 9.90658 19.3852 10.0073 20.1842C10.0971 20.9046 10.8828 21.2029 10.9787 21.2374L14.8216 22.5315C15.0766 23.3662 16.0165 26.4457 16.2243 27.1036C16.354 27.5138 16.5653 28.0527 16.9356 28.1636C17.2606 28.2868 17.5838 28.1742 17.793 28.0127L20.1425 25.8694L23.9353 28.7786L24.0256 28.8317C24.2832 28.9439 24.5299 29 24.7654 29C24.9473 29 25.1219 28.9664 25.2887 28.8993C25.857 28.6698 26.0843 28.1372 26.1081 28.0769L28.9411 13.5941C29.114 12.8206 28.8737 12.4271 28.6412 12.2337ZM18.2109 23.0491L16.9145 26.4491L15.6181 22.1991L25.5571 14.9741L18.2109 23.0491Z" fill="#FBFAFF"/>
</svg>
