<svg width="1117" height="481" viewBox="0 0 1117 481" fill="none" xmlns="http://www.w3.org/2000/svg">
<rect width="102" height="633" rx="51" transform="matrix(4.37114e-08 1 1 -4.37114e-08 435 71)" fill="#575757"/>
<rect width="102.5" height="443.424" rx="51.25" transform="matrix(4.37114e-08 1 1 -4.37114e-08 350.668 71)" fill="#FBFAFF"/>
<rect width="102" height="573" rx="51" transform="matrix(4.37114e-08 1 1 -4.37114e-08 516 174)" fill="#EAEAEA"/>
<rect width="205" height="452.337" rx="102.5" transform="matrix(4.37114e-08 1 1 -4.37114e-08 72.1367 173.5)" fill="#EAEAEA"/>
<rect width="102.5" height="340.924" rx="51.25" transform="matrix(4.37114e-08 1 1 -4.37114e-08 306.104 71)" fill="#F7CE88"/>
<rect width="102.5" height="606.087" rx="51.25" transform="matrix(4.37114e-08 1 1 -4.37114e-08 306.104 276)" fill="#FBFAFF"/>
<circle cx="425.315" cy="327.25" r="51.25" fill="#EAEAEA"/>
<rect width="205" height="508" rx="102.5" transform="matrix(4.37114e-08 1 1 -4.37114e-08 609 276)" fill="#523BFF"/>
<rect width="102.5" height="487.989" rx="51.25" transform="matrix(4.37114e-08 1 1 -4.37114e-08 306.104 378.5)" fill="#FBFAFF"/>
<rect width="102.5" height="454.565" rx="51.25" transform="matrix(4.37114e-08 1 1 -4.37114e-08 22 378.5)" fill="#575757"/>
<circle cx="425.315" cy="429.75" r="51.25" fill="#523BFF"/>
<circle cx="621.402" cy="224.75" r="50.25" stroke="#39393C" stroke-width="2"/>
<rect x="1" y="1" width="100.5" height="199.658" rx="50.25" transform="matrix(4.37114e-08 1 1 -4.37114e-08 387.206 378.5)" stroke="#39393C" stroke-width="2"/>
<line x1="249.838" y1="0.707107" x2="85.0903" y2="165.455" stroke="#39393C" stroke-width="2"/>
<line x1="277.966" y1="56.9625" x2="113.218" y2="221.71" stroke="#39393C" stroke-width="2"/>
<line x1="125.273" y1="163.446" x2="30.844" y2="257.874" stroke="#39393C" stroke-width="2"/>
<line x1="95.1358" y1="239.792" x2="0.707296" y2="334.221" stroke="#39393C" stroke-width="2"/>
</svg>
