<svg width="366" height="332" viewBox="0 0 366 332" fill="none" xmlns="http://www.w3.org/2000/svg">
<path fill-rule="evenodd" clip-rule="evenodd" d="M62.8512 204.495C88.5717 204.495 109.422 183.644 109.422 157.924V332H16.2803V157.924C16.2803 183.644 37.1308 204.495 62.8512 204.495ZM16.2889 157.02C16.2831 157.32 16.2803 157.622 16.2803 157.924V157.02L16.2889 157.02ZM109.414 157.02H109.422V157.924C109.422 157.622 109.419 157.32 109.414 157.02Z" fill="#523BFF"/>
<path d="M155.992 285.429C130.271 285.429 109.421 306.279 109.421 332H202.563C202.563 306.279 181.712 285.429 155.992 285.429Z" fill="#523BFF"/>
<path fill-rule="evenodd" clip-rule="evenodd" d="M155.993 58H109.422V104.571V151.142L155.993 151.142L365.658 151.142V58H155.993ZM155.993 58C181.713 58 202.564 78.8505 202.564 104.571C202.564 130.291 181.713 151.142 155.993 151.142C130.272 151.142 109.422 130.291 109.422 104.571C109.422 78.8505 130.272 58 155.993 58Z" fill="#523BFF"/>
<circle cx="249.135" cy="197.713" r="46.571" fill="#523BFF"/>
<circle cx="267.671" cy="197.713" r="46.071" stroke="#39393C"/>
<line x1="112.997" y1="106.808" x2="38.5073" y2="181.298" stroke="#39393C"/>
<line x1="125.715" y1="132.244" x2="51.225" y2="206.733" stroke="#39393C"/>
<line x1="56.6748" y1="180.389" x2="13.9794" y2="223.085" stroke="#39393C"/>
<line x1="43.0489" y1="214.909" x2="0.353467" y2="257.605" stroke="#39393C"/>
<line x1="88.4688" y1="262.147" x2="45.7734" y2="304.842" stroke="#39393C"/>
<circle cx="109.769" cy="13.1122" r="13.1122" fill="#F7CE88"/>
<circle cx="42.1787" cy="76.5215" r="4.52145" fill="#F7CE88"/>
</svg>
