<svg width="737" height="606" viewBox="0 0 737 606" fill="none" xmlns="http://www.w3.org/2000/svg">
<circle cx="592" cy="309" r="102" stroke="#39393C" stroke-width="2"/>
<path fill-rule="evenodd" clip-rule="evenodd" d="M139 324C195.885 324 242 277.885 242 221V606H36V221C36 277.885 82.1147 324 139 324ZM36.019 219C36.0064 219.665 36 220.332 36 221V219L36.019 219ZM241.981 219L242 219V221C242 220.332 241.994 219.665 241.981 219Z" fill="#523BFF"/>
<path d="M345 503C288.115 503 242 549.115 242 606H448C448 549.115 401.885 503 345 503Z" fill="#523BFF"/>
<path fill-rule="evenodd" clip-rule="evenodd" d="M345 9.15527e-05H242V103V206H345H737V9.15527e-05H345ZM345 9.15527e-05C401.885 9.15527e-05 448 46.1148 448 103C448 159.885 401.885 206 345 206C288.115 206 242 159.885 242 103C242 46.1148 288.115 9.15527e-05 345 9.15527e-05Z" fill="#523BFF"/>
<circle cx="551" cy="309" r="103" fill="#523BFF"/>
<path fill-rule="evenodd" clip-rule="evenodd" d="M84.3831 271.912L249.131 107.164L250.545 108.578L85.7973 273.326L84.3831 271.912Z" fill="#39393C"/>
<path fill-rule="evenodd" clip-rule="evenodd" d="M112.511 328.167L277.259 163.42L278.673 164.834L113.925 329.581L112.511 328.167Z" fill="#39393C"/>
<path fill-rule="evenodd" clip-rule="evenodd" d="M30.1368 364.331L124.565 269.903L125.979 271.317L31.551 365.745L30.1368 364.331Z" fill="#39393C"/>
<path fill-rule="evenodd" clip-rule="evenodd" d="M3.77393e-05 440.678L94.4286 346.249L95.8428 347.663L1.41425 442.092L3.77393e-05 440.678Z" fill="#39393C"/>
<path fill-rule="evenodd" clip-rule="evenodd" d="M100.456 545.152L194.885 450.723L196.299 452.137L101.87 546.566L100.456 545.152Z" fill="#39393C"/>
</svg>
