<svg width="113" height="36" viewBox="0 0 113 36" fill="none" xmlns="http://www.w3.org/2000/svg">
<path d="M65.5703 36V8.27997H69.6103V11.12H70.2503C70.757 10.24 71.517 9.4533 72.5303 8.75997C73.5703 8.06664 75.0503 7.71997 76.9703 7.71997C78.6236 7.71997 80.1303 8.11997 81.4903 8.91997C82.877 9.71997 83.9836 10.88 84.8103 12.4C85.6636 13.8933 86.0903 15.7066 86.0903 17.84V18.44C86.0903 20.5733 85.677 22.4 84.8503 23.92C84.0236 25.4133 82.917 26.56 81.5303 27.36C80.1436 28.16 78.6236 28.56 76.9703 28.56C75.6903 28.56 74.6103 28.4 73.7303 28.08C72.8503 27.76 72.1436 27.36 71.6103 26.88C71.077 26.3733 70.6503 25.8533 70.3303 25.32H69.6903V36H65.5703ZM75.7703 24.96C77.5836 24.96 79.0636 24.3866 80.2103 23.24C81.357 22.0933 81.9303 20.4533 81.9303 18.32V17.96C81.9303 15.8533 81.3436 14.2266 80.1703 13.08C79.0236 11.9333 77.557 11.36 75.7703 11.36C74.0103 11.36 72.5436 11.9333 71.3703 13.08C70.2236 14.2266 69.6503 15.8533 69.6503 17.96V18.32C69.6503 20.4533 70.2236 22.0933 71.3703 23.24C72.5436 24.3866 74.0103 24.96 75.7703 24.96Z" fill="#39393C"/>
<path d="M91.1953 36V8.27997H95.2353V11.12H95.8753C96.382 10.24 97.142 9.4533 98.1553 8.75997C99.1953 8.06664 100.675 7.71997 102.595 7.71997C104.249 7.71997 105.755 8.11997 107.115 8.91997C108.502 9.71997 109.609 10.88 110.435 12.4C111.289 13.8933 111.715 15.7066 111.715 17.84V18.44C111.715 20.5733 111.302 22.4 110.475 23.92C109.649 25.4133 108.542 26.56 107.155 27.36C105.769 28.16 104.249 28.56 102.595 28.56C101.315 28.56 100.235 28.4 99.3553 28.08C98.4753 27.76 97.7686 27.36 97.2353 26.88C96.702 26.3733 96.2753 25.8533 95.9553 25.32H95.3153V36H91.1953ZM101.395 24.96C103.209 24.96 104.689 24.3866 105.835 23.24C106.982 22.0933 107.555 20.4533 107.555 18.32V17.96C107.555 15.8533 106.969 14.2266 105.795 13.08C104.649 11.9333 103.182 11.36 101.395 11.36C99.6353 11.36 98.1686 11.9333 96.9953 13.08C95.8486 14.2266 95.2753 15.8533 95.2753 17.96V18.32C95.2753 20.4533 95.8486 22.0933 96.9953 23.24C98.1686 24.3866 99.6353 24.96 101.395 24.96Z" fill="#39393C"/>
<path d="M0 28V0H4.12V11.08H4.76C5.02667 10.5733 5.4 10.08 5.88 9.6C6.38667 9.12 7.04 8.73333 7.84 8.44C8.66667 8.12 9.70667 7.96 10.96 7.96C12.4533 7.96 13.7733 8.29333 14.92 8.96C16.0933 9.62667 17.0133 10.5733 17.68 11.8C18.3467 13 18.68 14.4533 18.68 16.16V28H14.56V16.48C14.56 14.7733 14.1333 13.52 13.28 12.72C12.4267 11.8933 11.2533 11.48 9.76 11.48C8.05333 11.48 6.68 12.04 5.64 13.16C4.62667 14.28 4.12 15.9067 4.12 18.04V28H0Z" fill="#523BFF"/>
<path d="M24.6094 28V8.28H28.6494V10.6H29.2894C29.6094 9.77333 30.116 9.17333 30.8094 8.8C31.5294 8.4 32.4094 8.2 33.4494 8.2H35.8094V11.92H33.2894C31.956 11.92 30.8627 12.2933 30.0094 13.04C29.156 13.76 28.7294 14.88 28.7294 16.4V28H24.6094Z" fill="#523BFF"/>
<path d="M44.76 26.86C45.9333 27.5266 48.5067 28 50 28C51.4933 28 54.0266 27.5266 55.2 26.86C56.3733 26.1933 57.2933 25.2466 57.96 24.02C58.6266 22.7933 58.96 21.3266 58.96 19.62V8.5H54.84V19.34C54.84 21.0466 54.4133 22.3133 53.56 23.14C52.7066 23.94 51.52 24.34 50 24.34C48.48 24.34 47.2533 23.94 46.4 23.14C45.5467 22.3133 45.12 21.0466 45.12 19.34V8.5H41V19.62C41 21.3266 41.3333 22.7933 42 24.02C42.6667 25.2466 43.5867 26.1933 44.76 26.86Z" fill="#39393C"/>
</svg>
